<svg width="18" height="18" viewBox="0 0 18 18" fill="none" xmlns="http://www.w3.org/2000/svg">
<path d="M8.99909 17.9991C7.8172 17.9991 6.64687 17.7663 5.55494 17.314C4.46301 16.8617 3.47086 16.1988 2.63513 15.3631C1.79941 14.5273 1.13647 13.5352 0.684178 12.4432C0.231886 11.3513 -0.000906467 10.181 -0.000906467 8.99909C-0.000906467 7.8172 0.231886 6.64687 0.684178 5.55494C1.13647 4.46301 1.79941 3.47086 2.63513 2.63513C3.47086 1.79941 4.46301 1.13647 5.55494 0.684178C6.64687 0.231886 7.8172 -0.000906229 8.99909 -0.000906229C11.386 -0.000906229 13.6752 0.947305 15.3631 2.63513C17.0509 4.32296 17.9991 6.61215 17.9991 8.99909C17.9991 11.386 17.0509 13.6752 15.3631 15.3631C13.6752 17.0509 11.386 17.9991 8.99909 17.9991ZM9.99909 8.99909V3.99909H7.99909V10.9991H12.9991V8.99909H9.99909Z" fill="#CCCCCB"/>
</svg>
