<svg width="56" height="68" viewBox="0 0 56 68" fill="none" xmlns="http://www.w3.org/2000/svg">
<g clip-path="url(#clip0_78_18778)">
<path d="M50.9756 22.9756C50.9756 10.2865 40.6891 0 28.0001 0C15.3663 0 5.15219 10.1067 5.02547 22.74C4.92983 32.2814 10.6514 40.4967 18.8603 44.0597C20.234 44.6559 21.409 45.6319 22.2509 46.8704L26.3617 52.918C27.1478 54.0744 28.852 54.0744 29.6381 52.918L33.7489 46.8705C34.5881 45.6358 35.757 44.6588 37.1268 44.0653C45.2749 40.5345 50.9756 32.4214 50.9756 22.9756Z" fill="#C62829"/>
<path d="M28 52.6404C27.8669 52.6404 27.5331 52.6048 27.3086 52.2745L23.1978 46.2267C22.2311 44.8045 20.8889 43.692 19.3163 43.0095C11.2422 39.5049 6.08214 31.5531 6.17043 22.7514C6.22862 16.9454 8.52199 11.51 12.628 7.44625C16.7336 3.38295 22.1933 1.14493 28 1.14493H28.0001C40.0376 1.14493 49.8308 10.9382 49.8308 22.9757C49.8308 31.685 44.6655 39.5508 36.6716 43.0148C35.108 43.6924 33.77 44.8031 32.8022 46.2269L28.6914 52.2746C28.4669 52.6048 28.1331 52.6404 28 52.6404Z" fill="#C62829"/>
<g clip-path="url(#clip1_78_18778)">
<path d="M42.406 19.2593C42.3366 19.0572 42.0904 18.8999 41.8849 18.8999C40.9949 18.8999 40.1051 18.8999 39.2152 18.8999C39.0097 18.8999 38.7635 19.0572 38.694 19.2593C38.626 19.4572 38.5752 19.6338 38.5415 19.7999L36.7581 14.8662C36.464 14.0526 35.685 13.506 34.82 13.506H21.1805C20.3154 13.506 19.5365 14.0526 19.2423 14.8663L17.4588 19.8005C17.425 19.6343 17.3742 19.4575 17.3062 19.2593C17.2367 19.0572 16.9905 18.8999 16.7851 18.8999C15.8952 18.8999 15.0053 18.8999 14.1153 18.8999C13.9099 18.8999 13.6636 19.0572 13.5942 19.2593C13.3238 20.0465 13.324 20.4972 13.5943 21.2845C13.6637 21.4867 13.9099 21.6439 14.1154 21.6439C15.0054 21.6439 15.8952 21.6439 16.7851 21.6439C16.7877 21.6439 16.7903 21.6432 16.7929 21.6432L16.7526 21.7547C16.2083 21.9356 15.8152 22.4481 15.8152 23.0532V27.1847V27.5252V32.0969C15.8152 32.4604 16.1097 32.7549 16.4732 32.7549H19.7845C20.1478 32.7549 20.4424 32.4604 20.4424 32.0969V28.8941H35.558V32.0969C35.558 32.4604 35.8525 32.7549 36.2159 32.7549H39.5272C39.8906 32.7549 40.1852 32.4604 40.1852 32.0969V27.5252V27.1847V23.0532C40.1852 22.4482 39.7923 21.9358 39.2481 21.7548L39.2078 21.6432C39.2102 21.6432 39.2128 21.6438 39.2152 21.6438C40.1052 21.6438 40.995 21.6438 41.885 21.6438C42.0905 21.6438 42.3367 21.4866 42.4061 21.2844C42.6764 20.4972 42.6763 20.0465 42.406 19.2593ZM21.4324 15.9272H34.5662L36.6471 21.6843H19.3515L21.4324 15.9272ZM21.7987 25.7399H19.0285C18.4342 25.7399 17.9524 25.2582 17.9524 24.6638C17.9524 24.0696 18.4341 23.5877 19.0285 23.5877H21.7987C22.393 23.5877 22.8748 24.0695 22.8748 24.6638C22.8749 25.2582 22.393 25.7399 21.7987 25.7399ZM36.9716 25.7399H34.2014C33.6072 25.7399 33.1253 25.2582 33.1253 24.6638C33.1253 24.0696 33.6072 23.5877 34.2014 23.5877H36.9716C37.566 23.5877 38.0477 24.0695 38.0477 24.6638C38.0477 25.2582 37.566 25.7399 36.9716 25.7399Z" fill="#F8F8F8"/>
</g>
</g>
<circle cx="28" cy="63" r="4" fill="#C62829" stroke="#F8F8F8" stroke-width="2"/>
<defs>
<clipPath id="clip0_78_18778">
<rect width="56" height="56" fill="white"/>
</clipPath>
<clipPath id="clip1_78_18778">
<rect width="29.2174" height="29.2174" fill="white" transform="translate(13.3914 8.52173)"/>
</clipPath>
</defs>
</svg>
